<svg preserveAspectRatio="none" width="100%" height="100%" overflow="visible" style="display: block;" viewBox="0 0 23 24" fill="none" xmlns="http://www.w3.org/2000/svg">
<g id="Frame">
<path id="Vector" d="M16.2437 20.65L17.3458 19.5L15.8125 17.9L14.7104 19.05C14.4868 19.2833 14.375 19.55 14.375 19.85C14.375 20.15 14.4868 20.4167 14.7104 20.65C14.934 20.8833 15.1896 21 15.4771 21C15.7646 21 16.0201 20.8833 16.2437 20.65ZM18.6875 18.1L19.7896 16.95C20.0132 16.7167 20.125 16.45 20.125 16.15C20.125 15.85 20.0132 15.5833 19.7896 15.35C19.566 15.1167 19.3104 15 19.0229 15C18.7354 15 18.4799 15.1167 18.2562 15.35L17.1542 16.5L18.6875 18.1ZM17.6094 22.075C17.0184 22.6917 16.3076 23 15.4771 23C14.6465 23 13.9358 22.6917 13.3448 22.075C12.7538 21.4583 12.4583 20.7167 12.4583 19.85C12.4583 18.9833 12.7538 18.2417 13.3448 17.625L16.8906 13.925C17.4816 13.3083 18.1924 13 19.0229 13C19.8535 13 20.5642 13.3083 21.1552 13.925C21.7462 14.5417 22.0417 15.2833 22.0417 16.15C22.0417 17.0167 21.7462 17.7583 21.1552 18.375L17.6094 22.075ZM4.79167 21C4.26458 21 3.81337 20.8042 3.43802 20.4125C3.06267 20.0208 2.875 19.55 2.875 19V5C2.875 4.45 3.06267 3.97917 3.43802 3.5875C3.81337 3.19583 4.26458 3 4.79167 3H8.81667C9.02431 2.4 9.3717 1.91667 9.85885 1.55C10.346 1.18333 10.8931 1 11.5 1C12.1069 1 12.654 1.18333 13.1411 1.55C13.6283 1.91667 13.9757 2.4 14.1833 3H18.2083C18.7354 3 19.1866 3.19583 19.562 3.5875C19.9373 3.97917 20.125 4.45 20.125 5V11.125C19.8056 11.0417 19.4861 11 19.1667 11C18.8472 11 18.5278 11.025 18.2083 11.075V5H4.79167V19H10.6135C10.5656 19.3333 10.5417 19.6667 10.5417 20C10.5417 20.3333 10.5816 20.6667 10.6615 21H4.79167ZM11.5 4.25C11.7076 4.25 11.8793 4.17917 12.0151 4.0375C12.1509 3.89583 12.2187 3.71667 12.2187 3.5C12.2187 3.28333 12.1509 3.10417 12.0151 2.9625C11.8793 2.82083 11.7076 2.75 11.5 2.75C11.2924 2.75 11.1207 2.82083 10.9849 2.9625C10.8491 3.10417 10.7812 3.28333 10.7812 3.5C10.7812 3.71667 10.8491 3.89583 10.9849 4.0375C11.1207 4.17917 11.2924 4.25 11.5 4.25ZM6.70833 9V7H16.2917V9H6.70833ZM6.70833 13V11H16.2917V11.85C16.1639 11.9333 16.0401 12.0292 15.9203 12.1375C15.8005 12.2458 15.6767 12.3667 15.549 12.5L15.0698 13H6.70833ZM6.70833 17V15H13.1531L11.9792 16.225C11.8514 16.3583 11.7356 16.4875 11.6318 16.6125C11.528 16.7375 11.4361 16.8667 11.3562 17H6.70833Z" fill="var(--fill-0, #5C5959)"/>
</g>
</svg>
