<svg preserveAspectRatio="none" width="100%" height="100%" overflow="visible" style="display: block;" viewBox="0 0 9.30748 9.30748" fill="none" xmlns="http://www.w3.org/2000/svg">
<g id="Frame">
<path id="Vector" d="M2.90902 4.26602C2.53413 4.26602 2.21419 4.13351 1.94918 3.86851C1.68418 3.60351 1.55168 3.28356 1.55168 2.90868C1.55168 2.53379 1.68418 2.21385 1.94918 1.94884C2.21419 1.68384 2.53413 1.55134 2.90902 1.55134C3.2839 1.55134 3.60385 1.68384 3.86885 1.94884C4.13386 2.21385 4.26636 2.53379 4.26636 2.90868C4.26636 3.28356 4.13386 3.60351 3.86885 3.86851C3.60385 4.13351 3.2839 4.26602 2.90902 4.26602ZM2.90902 3.49039C3.0706 3.49039 3.20795 3.43384 3.32107 3.32073C3.43418 3.20761 3.49073 3.07026 3.49073 2.90868C3.49073 2.74709 3.43418 2.60974 3.32107 2.49663C3.20795 2.38351 3.0706 2.32696 2.90902 2.32696C2.74743 2.32696 2.61008 2.38351 2.49697 2.49663C2.38386 2.60974 2.3273 2.74709 2.3273 2.90868C2.3273 3.07026 2.38386 3.20761 2.49697 3.32073C2.61008 3.43384 2.74743 3.49039 2.90902 3.49039ZM6.39932 7.75632C6.02444 7.75632 5.70449 7.62382 5.43949 7.35881C5.17448 7.09381 5.04198 6.77387 5.04198 6.39898C5.04198 6.0241 5.17448 5.70415 5.43949 5.43915C5.70449 5.17414 6.02444 5.04164 6.39932 5.04164C6.77421 5.04164 7.09415 5.17414 7.35915 5.43915C7.62416 5.70415 7.75666 6.0241 7.75666 6.39898C7.75666 6.77387 7.62416 7.09381 7.35915 7.35881C7.09415 7.62382 6.77421 7.75632 6.39932 7.75632ZM6.39932 6.9807C6.56091 6.9807 6.69826 6.92414 6.81137 6.81103C6.92448 6.69792 6.98104 6.56057 6.98104 6.39898C6.98104 6.23739 6.92448 6.10004 6.81137 5.98693C6.69826 5.87382 6.56091 5.81726 6.39932 5.81726C6.23773 5.81726 6.10038 5.87382 5.98727 5.98693C5.87416 6.10004 5.8176 6.23739 5.8176 6.39898C5.8176 6.56057 5.87416 6.69792 5.98727 6.81103C6.10038 6.92414 6.23773 6.9807 6.39932 6.9807ZM2.09461 7.75632L1.55168 7.21338L7.21373 1.55134L7.75666 2.09427L2.09461 7.75632Z" fill="var(--fill-0, black)"/>
</g>
</svg>
